# xmcd CD database file
#
# Track frame offsets:
#	150
#	11625
#	21150
#	36525
#	49650
#	61200
#	69712
#	80475
#	94800
#	111450
#	123375
#	131775
#	140775
#	154612
#	167400
#	174562
#	189487
#	199950
#	210300
#	225000
#	236587
#	249075
#	259687
#	273712
#	284475
#	291675
#	297487
#	307800
#	315075
#	325125
#
# Disc length: 4458 seconds
#
# Revision: 2
# Processed by: cddbd v1.5.2PL0 Copyright (c) Steve Scherf et al.
# Submitted via: Fey Extractor 
#
DISCID=bc11681e
DTITLE=Young Fogies V2 - The Young Fogies, Vol. II
DYEAR=1995
DGENRE=Cajun
TTITLE0=Young Fogies V2 - The L-7's - Georgia Horseshoe
TTITLE1=Young Fogies V2 - Leftwich and Higginbotham - Poplar Bluff
TTITLE2=Young Fogies V2 - The Chicken Chokers - Grey Eagle
TTITLE3=Young Fogies V2 - Mac and Jenny Traynham - Little Poplar Log House
TTITLE4=Young Fogies V2 - Blue Ridge Mountain Minstrels - Wabash Blues
TTITLE5=Young Fogies V2 - Dave Bing - Fine Times At Our House
TTITLE6=Young Fogies V2 - Bobby Taylor and Jim Nelson - Durang's Hornpipe
TTITLE7=Young Fogies V2 - Brislin, Stecher and Senauke - Spanish Cavalier
TTITLE8=Young Fogies V2 - The Lazy Aces - Keep Your Gal At Home
TTITLE9=Young Fogies V2 - Indian Creek Delta Boys - Devil In The Haystack
TTITLE10=Young Fogies V2 - The Red Mules - Icy Mountain
TTITLE11=Young Fogies V2 - The ILL-MO Boys - Wolf Creek
TTITLE12=Young Fogies V2 - Sauber, Herrmann, Powell - Railroad Runs Through Georgia
TTITLE13=Young Fogies V2 - The Midnight Mockingbirds - Native Home
TTITLE14=Young Fogies V2 - Reed, Huval, Trahan and Trahan - Danse Carri
TTITLE15=Young Fogies V2 - Shootin' Creek String Band - If The River Were Whiskey
TTITLE16=Young Fogies V2 - Sparkill Creek Serenaders - Boats Up The River
TTITLE17=Young Fogies V2 - Carthy and The Sisco Kids - F and D
TTITLE18=Young Fogies V2 - Snow Hill - Black and White Rag
TTITLE19=Young Fogies V2 - The Rhythm Rats - Half Past Four
TTITLE20=Young Fogies V2 - The Piedmont Pepsteppers - Sister Ann
TTITLE21=Young Fogies V2 - Richard and Beth Hartness - Walking Up Georgia Row
TTITLE22=Young Fogies V2 - The Volo Bogtrotters - The Crow Song
TTITLE23=Young Fogies V2 - Collier and Newberry - Sal's Got Mud Between Her Toes
TTITLE24=Young Fogies V2 - The Hoover Uprights - Stewart Lundy's Tune
TTITLE25=Young Fogies V2 - Double Eagle String Band - Wolves In The Woods
TTITLE26=Young Fogies V2 - Charlie Waldren and Pat Plunkett - Sally Johnson
TTITLE27=Young Fogies V2 - Hart and Blech - Will Davenport's Tune
TTITLE28=Young Fogies V2 - Lost Rosin - John Robertson - Dusty Miller
TTITLE29=Young Fogies V2 - Queen City Bulldogs - Zach Wheat's Piece
EXTD=YEAR: 1995
EXTT0=
EXTT1=
EXTT2=
EXTT3=
EXTT4=
EXTT5=
EXTT6=
EXTT7=
EXTT8=
EXTT9=
EXTT10=
EXTT11=
EXTT12=
EXTT13=
EXTT14=
EXTT15=
EXTT16=
EXTT17=
EXTT18=
EXTT19=
EXTT20=
EXTT21=
EXTT22=
EXTT23=
EXTT24=
EXTT25=
EXTT26=
EXTT27=
EXTT28=
EXTT29=
PLAYORDER=
